<mxfile host="Electron" modified="2023-11-05T21:38:38.251Z" agent="Mozilla/5.0 (Macintosh; Intel Mac OS X 10_15_7) AppleWebKit/537.36 (KHTML, like Gecko) draw.io/22.0.3 Chrome/114.0.5735.289 Electron/25.8.4 Safari/537.36" etag="o7eOixavRDK7qm6xxRmv" version="22.0.3" type="device">
  <diagram name="Pagina-1" id="7nkZSx3e65T_ej2WiyLj">
    <mxGraphModel dx="1735" dy="1064" grid="1" gridSize="10" guides="1" tooltips="1" connect="1" arrows="1" fold="1" page="1" pageScale="1" pageWidth="827" pageHeight="1169" math="0" shadow="0">
      <root>
        <mxCell id="0" />
        <mxCell id="1" parent="0" />
        <mxCell id="YkjcMhJXb6xVYqQmn-Jw-1" value="" style="group;fontColor=#FF9933;strokeColor=none;container=0;" parent="1" vertex="1" connectable="0">
          <mxGeometry x="330.25" y="184" width="137.5" height="80" as="geometry" />
        </mxCell>
        <mxCell id="YkjcMhJXb6xVYqQmn-Jw-4" value="InterfacciaProprietario" style="shape=umlFrame;whiteSpace=wrap;html=1;pointerEvents=0;width=150;height=30;fillColor=#ff9933;strokeColor=#ff9933;strokeWidth=2;fontStyle=1;fontColor=#FFFFFF;" parent="1" vertex="1">
          <mxGeometry x="109" y="134" width="610" height="330" as="geometry" />
        </mxCell>
        <mxCell id="YkjcMhJXb6xVYqQmn-Jw-5" value="" style="shape=folder;fontStyle=1;spacingTop=10;tabWidth=135;tabHeight=30;tabPosition=left;html=1;whiteSpace=wrap;strokeColor=#FF9933;" parent="1" vertex="1">
          <mxGeometry x="464" y="304" width="165" height="90" as="geometry" />
        </mxCell>
        <mxCell id="YkjcMhJXb6xVYqQmn-Jw-6" value="ViewAggiungiProdotto" style="text;html=1;align=center;verticalAlign=middle;resizable=0;points=[];autosize=1;strokeColor=none;fillColor=none;fontSize=11;fontStyle=1;fontColor=#FF9933;" parent="1" vertex="1">
          <mxGeometry x="459" y="304" width="140" height="30" as="geometry" />
        </mxCell>
        <mxCell id="YkjcMhJXb6xVYqQmn-Jw-7" value="" style="shape=folder;fontStyle=1;spacingTop=10;tabWidth=80;tabHeight=30;tabPosition=left;html=1;whiteSpace=wrap;strokeColor=#FF9933;" parent="1" vertex="1">
          <mxGeometry x="194" y="304" width="135" height="80" as="geometry" />
        </mxCell>
        <mxCell id="YkjcMhJXb6xVYqQmn-Jw-8" value="ViewStorico" style="text;html=1;align=center;verticalAlign=middle;resizable=0;points=[];autosize=1;strokeColor=none;fillColor=none;fontSize=11;fontStyle=1;fontColor=#FF9933;" parent="1" vertex="1">
          <mxGeometry x="187.75" y="304" width="90" height="30" as="geometry" />
        </mxCell>
        <mxCell id="YkjcMhJXb6xVYqQmn-Jw-9" value="" style="endArrow=open;endSize=16;endFill=0;html=1;rounded=0;exitX=0.151;exitY=0.998;exitDx=0;exitDy=0;exitPerimeter=0;entryX=0;entryY=0;entryDx=135;entryDy=55;entryPerimeter=0;" parent="1" source="YkjcMhJXb6xVYqQmn-Jw-2" target="YkjcMhJXb6xVYqQmn-Jw-7" edge="1">
          <mxGeometry width="160" relative="1" as="geometry">
            <mxPoint x="359" y="264" as="sourcePoint" />
            <mxPoint x="379" y="324" as="targetPoint" />
            <Array as="points">
              <mxPoint x="370" y="360" />
            </Array>
          </mxGeometry>
        </mxCell>
        <mxCell id="YkjcMhJXb6xVYqQmn-Jw-10" value="" style="endArrow=open;endSize=16;endFill=0;html=1;rounded=0;exitX=0.25;exitY=1;exitDx=0;exitDy=0;exitPerimeter=0;entryX=0;entryY=0;entryDx=0;entryDy=55;entryPerimeter=0;" parent="1" target="YkjcMhJXb6xVYqQmn-Jw-5" edge="1">
          <mxGeometry width="160" relative="1" as="geometry">
            <mxPoint x="423" y="264" as="sourcePoint" />
            <mxPoint x="389" y="359" as="targetPoint" />
            <Array as="points">
              <mxPoint x="423" y="359" />
            </Array>
          </mxGeometry>
        </mxCell>
        <mxCell id="YkjcMhJXb6xVYqQmn-Jw-11" value="GestioneProprietario" style="shape=umlFrame;whiteSpace=wrap;html=1;pointerEvents=0;width=148;height=30;fillColor=#82b366;strokeColor=#82b366;fontStyle=1;fontColor=#FFFFFF;strokeWidth=2;" parent="1" vertex="1">
          <mxGeometry x="211.5" y="534" width="370" height="210" as="geometry" />
        </mxCell>
        <mxCell id="YkjcMhJXb6xVYqQmn-Jw-12" value="&lt;p style=&quot;margin:0px;margin-top:4px;text-align:center;&quot;&gt;&lt;b&gt;GestioneProprietarioController&lt;/b&gt;&lt;/p&gt;&lt;hr size=&quot;1&quot;&gt;&lt;p style=&quot;margin:0px;margin-left:4px;&quot;&gt;+ aggiungi(Prodotto)&lt;/p&gt;&lt;p style=&quot;margin:0px;margin-left:4px;&quot;&gt;+ modifica(Prodotto)&lt;/p&gt;&lt;p style=&quot;margin:0px;margin-left:4px;&quot;&gt;+ rimuovi(Prodotto)&lt;/p&gt;&lt;p style=&quot;margin:0px;margin-left:4px;&quot;&gt;+ impostaStato(Ordine, String)&lt;/p&gt;&lt;p style=&quot;margin:0px;margin-left:4px;&quot;&gt;+ impostaDataRitiro(Ordine, Date)&lt;/p&gt;&lt;p style=&quot;margin:0px;margin-left:4px;&quot;&gt;&lt;br&gt;&lt;/p&gt;" style="verticalAlign=top;align=left;overflow=fill;fontSize=12;fontFamily=Helvetica;html=1;whiteSpace=wrap;" parent="1" vertex="1">
          <mxGeometry x="281.5" y="600" width="235" height="116" as="geometry" />
        </mxCell>
        <mxCell id="YkjcMhJXb6xVYqQmn-Jw-13" value="Use" style="endArrow=open;endSize=12;dashed=1;html=1;rounded=0;exitX=0;exitY=0;exitDx=0;exitDy=42.5;exitPerimeter=0;entryX=0.003;entryY=0.471;entryDx=0;entryDy=0;entryPerimeter=0;" parent="1" source="YkjcMhJXb6xVYqQmn-Jw-7" target="YkjcMhJXb6xVYqQmn-Jw-12" edge="1">
          <mxGeometry x="-0.1884" y="-1" width="160" relative="1" as="geometry">
            <mxPoint x="209" y="564" as="sourcePoint" />
            <mxPoint x="369" y="564" as="targetPoint" />
            <Array as="points">
              <mxPoint x="179" y="347" />
              <mxPoint x="179" y="654" />
            </Array>
            <mxPoint as="offset" />
          </mxGeometry>
        </mxCell>
        <mxCell id="YkjcMhJXb6xVYqQmn-Jw-14" value="Use" style="endArrow=open;endSize=12;dashed=1;html=1;rounded=0;exitX=0.612;exitY=1.002;exitDx=0;exitDy=0;exitPerimeter=0;entryX=1;entryY=0.464;entryDx=0;entryDy=0;entryPerimeter=0;" parent="1" source="YkjcMhJXb6xVYqQmn-Jw-5" target="YkjcMhJXb6xVYqQmn-Jw-12" edge="1">
          <mxGeometry x="-0.3136" width="160" relative="1" as="geometry">
            <mxPoint x="452" y="284" as="sourcePoint" />
            <mxPoint x="520" y="654" as="targetPoint" />
            <Array as="points">
              <mxPoint x="565" y="654" />
            </Array>
            <mxPoint as="offset" />
          </mxGeometry>
        </mxCell>
        <mxCell id="YkjcMhJXb6xVYqQmn-Jw-15" value="Use" style="endArrow=open;endSize=12;dashed=1;html=1;rounded=0;entryX=0.5;entryY=0;entryDx=0;entryDy=0;exitX=0.371;exitY=1.001;exitDx=0;exitDy=0;exitPerimeter=0;" parent="1" source="YkjcMhJXb6xVYqQmn-Jw-2" target="YkjcMhJXb6xVYqQmn-Jw-12" edge="1">
          <mxGeometry x="-0.1884" y="-1" width="160" relative="1" as="geometry">
            <mxPoint x="377" y="404" as="sourcePoint" />
            <mxPoint x="329" y="674" as="targetPoint" />
            <Array as="points" />
            <mxPoint as="offset" />
          </mxGeometry>
        </mxCell>
        <mxCell id="YkjcMhJXb6xVYqQmn-Jw-16" value="Log" style="shape=umlFrame;whiteSpace=wrap;html=1;pointerEvents=0;width=78;height=30;fillColor=#82b366;strokeColor=#82b366;strokeWidth=2;fontStyle=1;fontColor=#FFFFFF;" parent="1" vertex="1">
          <mxGeometry x="277.75" y="854" width="237.5" height="180" as="geometry" />
        </mxCell>
        <mxCell id="YkjcMhJXb6xVYqQmn-Jw-17" value="&lt;p style=&quot;margin:0px;margin-top:4px;text-align:center;&quot;&gt;&lt;b&gt;Logger&lt;/b&gt;&lt;/p&gt;&lt;hr size=&quot;1&quot;&gt;&lt;p style=&quot;margin:0px;margin-left:4px;&quot;&gt;+ aggiungiVoce(voce)&lt;/p&gt;" style="verticalAlign=top;align=left;overflow=fill;fontSize=12;fontFamily=Helvetica;html=1;whiteSpace=wrap;" parent="1" vertex="1">
          <mxGeometry x="315.25" y="914" width="157.5" height="70" as="geometry" />
        </mxCell>
        <mxCell id="YkjcMhJXb6xVYqQmn-Jw-18" value="" style="shape=folder;fontStyle=1;spacingTop=10;tabWidth=130;tabHeight=30;tabPosition=left;html=1;whiteSpace=wrap;strokeColor=#FF9933;" parent="1" vertex="1">
          <mxGeometry x="530" y="194" width="170" height="80" as="geometry" />
        </mxCell>
        <mxCell id="YkjcMhJXb6xVYqQmn-Jw-19" value="ViewRimuoviProdotto" style="text;html=1;align=center;verticalAlign=middle;resizable=0;points=[];autosize=1;strokeColor=none;fillColor=none;fontSize=11;fontStyle=1;fontColor=#FF9933;" parent="1" vertex="1">
          <mxGeometry x="520" y="194" width="140" height="30" as="geometry" />
        </mxCell>
        <mxCell id="YkjcMhJXb6xVYqQmn-Jw-20" value="" style="shape=folder;fontStyle=1;spacingTop=10;tabWidth=135;tabHeight=30;tabPosition=left;html=1;whiteSpace=wrap;strokeColor=#FF9933;" parent="1" vertex="1">
          <mxGeometry x="150.25" y="194" width="165" height="90" as="geometry" />
        </mxCell>
        <mxCell id="YkjcMhJXb6xVYqQmn-Jw-21" value="ViewModificaProdotto" style="text;html=1;align=center;verticalAlign=middle;resizable=0;points=[];autosize=1;strokeColor=none;fillColor=none;fontSize=11;fontStyle=1;fontColor=#FF9933;" parent="1" vertex="1">
          <mxGeometry x="146.5" y="194" width="140" height="30" as="geometry" />
        </mxCell>
        <mxCell id="YkjcMhJXb6xVYqQmn-Jw-24" value="Use" style="endArrow=open;endSize=12;dashed=1;html=1;rounded=0;exitX=0.5;exitY=1;exitDx=0;exitDy=0;entryX=0.507;entryY=0.004;entryDx=0;entryDy=0;entryPerimeter=0;" parent="1" source="YkjcMhJXb6xVYqQmn-Jw-12" target="YkjcMhJXb6xVYqQmn-Jw-16" edge="1">
          <mxGeometry x="-0.1884" y="-1" width="160" relative="1" as="geometry">
            <mxPoint x="724" y="677" as="sourcePoint" />
            <mxPoint x="812" y="984" as="targetPoint" />
            <mxPoint as="offset" />
          </mxGeometry>
        </mxCell>
        <mxCell id="YkjcMhJXb6xVYqQmn-Jw-2" value="" style="shape=folder;fontStyle=1;spacingTop=10;tabWidth=109;tabHeight=30;tabPosition=left;html=1;whiteSpace=wrap;strokeColor=#FF9933;" parent="1" vertex="1">
          <mxGeometry x="350" y="184" width="135" height="80" as="geometry" />
        </mxCell>
        <mxCell id="YkjcMhJXb6xVYqQmn-Jw-3" value="HomeProprietario" style="text;html=1;align=center;verticalAlign=middle;resizable=0;points=[];autosize=1;strokeColor=none;fillColor=none;fontSize=11;fontStyle=1;fontColor=#FF9933;" parent="1" vertex="1">
          <mxGeometry x="344" y="184" width="120" height="30" as="geometry" />
        </mxCell>
        <mxCell id="PLH5_leIgdaonlAbZWFE-1" value="" style="endArrow=open;endSize=16;endFill=0;html=1;rounded=0;exitX=0;exitY=0;exitDx=135;exitDy=55;exitPerimeter=0;entryX=-0.002;entryY=0.571;entryDx=0;entryDy=0;entryPerimeter=0;" parent="1" source="YkjcMhJXb6xVYqQmn-Jw-2" target="YkjcMhJXb6xVYqQmn-Jw-18" edge="1">
          <mxGeometry width="160" relative="1" as="geometry">
            <mxPoint x="465.25" y="224" as="sourcePoint" />
            <mxPoint x="506.25" y="319" as="targetPoint" />
          </mxGeometry>
        </mxCell>
        <mxCell id="PLH5_leIgdaonlAbZWFE-3" value="" style="endArrow=open;endSize=16;endFill=0;html=1;rounded=0;exitX=-0.002;exitY=0.802;exitDx=0;exitDy=0;exitPerimeter=0;entryX=1;entryY=0.603;entryDx=0;entryDy=0;entryPerimeter=0;" parent="1" source="YkjcMhJXb6xVYqQmn-Jw-2" target="YkjcMhJXb6xVYqQmn-Jw-20" edge="1">
          <mxGeometry width="160" relative="1" as="geometry">
            <mxPoint x="325.25" y="238.5" as="sourcePoint" />
            <mxPoint x="370.25" y="239.5" as="targetPoint" />
          </mxGeometry>
        </mxCell>
        <mxCell id="PLH5_leIgdaonlAbZWFE-4" value="Use" style="endArrow=open;endSize=12;dashed=1;html=1;rounded=0;exitX=0.825;exitY=0.993;exitDx=0;exitDy=0;exitPerimeter=0;entryX=1;entryY=0.464;entryDx=0;entryDy=0;entryPerimeter=0;" parent="1" source="YkjcMhJXb6xVYqQmn-Jw-18" edge="1">
          <mxGeometry x="-0.1884" y="-1" width="160" relative="1" as="geometry">
            <mxPoint x="670.1200000000001" y="300" as="sourcePoint" />
            <mxPoint x="516.5" y="685.76" as="targetPoint" />
            <Array as="points">
              <mxPoint x="670.5" y="685.76" />
            </Array>
            <mxPoint as="offset" />
          </mxGeometry>
        </mxCell>
        <mxCell id="PLH5_leIgdaonlAbZWFE-5" value="Use" style="endArrow=open;endSize=12;dashed=1;html=1;rounded=0;exitX=0.886;exitY=1.053;exitDx=0;exitDy=0;exitPerimeter=0;entryX=0;entryY=0.681;entryDx=0;entryDy=0;entryPerimeter=0;" parent="1" target="YkjcMhJXb6xVYqQmn-Jw-12" edge="1">
          <mxGeometry x="-0.2351" y="-4" width="160" relative="1" as="geometry">
            <mxPoint x="164" y="284" as="sourcePoint" />
            <mxPoint x="10" y="670" as="targetPoint" />
            <Array as="points">
              <mxPoint x="164" y="679" />
            </Array>
            <mxPoint as="offset" />
          </mxGeometry>
        </mxCell>
      </root>
    </mxGraphModel>
  </diagram>
</mxfile>
